<?xml version="1.0" encoding="utf-8"?><svg xmlns="http://www.w3.org/2000/svg" viewBox="0 0 32 32"><svg id="c1" viewBox="0 0 27 32"><path d="m4 .475 4.672 4.423L0 4.893v21.458h22.667v-8.204l4.667 4.418V.476H4.001zm18.462 17.153L9.215 5.088h13.247v12.54zm-4.113 5.584H3.587V8.78H4.63v13.454h13.719v.977zM7.073 29.208l-.545 1.123-.545-1.123h-.457l.796 1.497v.872h.413v-.872l.794-1.497h-.456zm.685 2.37.192-.552h.918l.194.552h.43l-.897-2.37h-.369l-.895 2.37h.428zm.651-1.867.343.983h-.687l.343-.983zm2.171.926a.537.537 0 0 0-.09.301c0 .2.07.362.21.487.141.124.329.186.563.186s.436-.063.605-.19l.133.158h.459l-.348-.412c.137-.187.205-.426.205-.718h-.343a.95.95 0 0 1-.099.435l-.457-.54.161-.117a.894.894 0 0 0 .246-.247.524.524 0 0 0 .075-.273.487.487 0 0 0-.166-.376.598.598 0 0 0-.423-.153.629.629 0 0 0-.456.163.576.576 0 0 0-.169.439.58.58 0 0 0 .054.236c.037.081.101.18.194.296-.176.126-.294.235-.353.327zm1.069.524a.603.603 0 0 1-.374.133c-.118 0-.213-.034-.283-.103s-.106-.157-.106-.267c0-.127.065-.24.195-.339l.05-.036.518.61zm-.424-1.05c-.112-.138-.168-.252-.168-.343 0-.079.023-.145.068-.197s.107-.078.184-.078c.072 0 .131.022.177.067.047.043.07.096.07.158 0 .093-.034.17-.101.23l-.05.041-.181.124zm3.857 1.288c.163-.142.256-.34.28-.592h-.41c-.022.169-.073.29-.155.363s-.203.109-.365.109a.459.459 0 0 1-.404-.202c-.091-.135-.137-.33-.137-.586v-.21c.002-.253.051-.444.146-.575a.483.483 0 0 1 .413-.197c.154 0 .271.038.35.114.08.075.13.197.15.368h.41c-.026-.259-.119-.46-.278-.602s-.37-.213-.632-.213a.955.955 0 0 0-.514.138c-.148.092-.261.224-.34.394s-.119.367-.119.591v.221c.003.218.044.41.122.575s.189.292.332.383a.932.932 0 0 0 .5.133c.27 0 .487-.071.649-.212zm2.42-.332c.08-.176.12-.38.12-.612v-.132a1.423 1.423 0 0 0-.124-.607.897.897 0 0 0-.347-.4c-.149-.093-.32-.14-.513-.14s-.365.047-.514.142a.924.924 0 0 0-.347.405 1.456 1.456 0 0 0-.122.612v.133c.001.227.042.427.124.601a.934.934 0 0 0 .348.402.96.96 0 0 0 .514.14.947.947 0 0 0 .514-.14.908.908 0 0 0 .345-.404zm-.441-1.34c.1.14.15.341.15.604v.124c0 .267-.049.47-.148.609a.483.483 0 0 1-.42.208.492.492 0 0 1-.423-.213c-.101-.142-.151-.343-.151-.604v-.137c.002-.255.053-.452.153-.591.101-.14.24-.21.418-.21.182 0 .323.07.422.21z"/></svg><svg id="c2" viewBox="0 0 24 32"><path d="M10.333 2.202h-.082c-.127-.008-.254-.011-.38-.014h-.275c-.24 0-.484.006-.727.018a.505.505 0 0 0-.055 0 17.08 17.08 0 0 0-6.349 1.62l-.261.126V17.32l.611-.207c.536-.184 1.107-.35 1.698-.504a20.731 20.731 0 0 1 4.888-.649v1.756c-.218.002-.431.008-.643.018h-.05c-1.269.07-2.528.263-3.76.577a19.11 19.11 0 0 0-4.48 1.746V2.912a17.931 17.931 0 0 1 4.7-1.911A17.94 17.94 0 0 1 9.597.43h.258c.309.008.609.022.892.043.744.052 1.483.17 2.207.352v1.729a13.54 13.54 0 0 0-2.182-.326 5.148 5.148 0 0 0-.437-.025zm3.042 1.768c.383.029.78.043 1.182.043a19.006 19.006 0 0 0 4.657-.597 19.187 19.187 0 0 0 4.478-1.747v16.84c-1.47.856-3.053 1.5-4.701 1.912a18.089 18.089 0 0 1-4.429.57 13.539 13.539 0 0 1-3.36-.396V3.646a13.76 13.76 0 0 0 2.174.325zm8.57.13-.611.206c-.562.189-1.129.358-1.698.508a20.693 20.693 0 0 1-5.075.651c-.399 0-.765-.011-1.12-.034l-.487-.032v13.752l.418.037c.388.034.788.051 1.191.051a16.284 16.284 0 0 0 3.997-.517 16.81 16.81 0 0 0 3.123-1.122l.261-.126V4.101zM1.653 25.917a.9.9 0 0 0-.68-.275 1.002 1.002 0 0 0-.393.074.874.874 0 0 0-.502.508.984.984 0 0 0-.07.379v2.291c-.005.161.025.322.09.47a.922.922 0 0 0 .229.307.804.804 0 0 0 .315.163c.111.031.226.047.342.048a.86.86 0 0 0 .37-.08.951.951 0 0 0 .505-.519.919.919 0 0 0 .073-.365v-.256h-.599v.204a.525.525 0 0 1-.035.204.368.368 0 0 1-.087.129.41.41 0 0 1-.25.087.307.307 0 0 1-.281-.122.543.543 0 0 1-.079-.307v-2.136a.723.723 0 0 1 .073-.342.303.303 0 0 1 .293-.138.317.317 0 0 1 .267.129.485.485 0 0 1 .099.307v.198h.593v-.233a1.1 1.1 0 0 0-.073-.401.928.928 0 0 0-.2-.322zM5.21 25.891a1.07 1.07 0 0 0-.681-.252 1.058 1.058 0 0 0-.357.064.947.947 0 0 0-.548.508c-.06.14-.09.291-.087.444v2.197c-.004.155.026.308.087.45a.886.886 0 0 0 .232.307.928.928 0 0 0 .316.193 1.038 1.038 0 0 0 .714 0c.119-.043.229-.109.324-.193a.938.938 0 0 0 .226-.307c.061-.142.091-.295.087-.45v-2.197a1.076 1.076 0 0 0-.087-.444.99.99 0 0 0-.226-.321zm-.28 2.962a.387.387 0 0 1-.119.317.441.441 0 0 1-.564 0 .389.389 0 0 1-.119-.317v-2.197a.387.387 0 0 1 .119-.317.441.441 0 0 1 .564 0 .389.389 0 0 1 .119.317v2.197zM9.882 29.834v-4.159h-.576l-.756 2.202h-.011l-.762-2.202h-.57v4.159h.594v-2.53h.011l.582 1.789h.296l.586-1.789h.011v2.53h.594zM13.258 25.966a.82.82 0 0 0-.336-.227 1.314 1.314 0 0 0-.431-.064h-.883v4.159h.593V28.21h.305a1.09 1.09 0 0 0 .535-.114.863.863 0 0 0 .325-.318.989.989 0 0 0 .136-.362 3 3 0 0 0 .032-.473c.006-.2-.014-.399-.058-.594a.896.896 0 0 0-.218-.382zm-.306 1.269a.523.523 0 0 1-.055.216.333.333 0 0 1-.153.146.613.613 0 0 1-.28.052h-.27v-1.414h.305a.558.558 0 0 1 .267.052c.061.035.11.089.139.154.032.073.05.152.052.232v.276c0 .096.006.197 0 .286h-.006zM16.065 25.675h-.486l-.916 4.159h.593l.174-.894h.808l.174.894h.593l-.939-4.159zm-.547 2.699.292-1.508h.011l.29 1.508h-.593zM19.894 28.18h-.011l-.895-2.506h-.57v4.159h.593v-2.501h.012l.906 2.501h.557v-4.159h-.593v2.506zM23.516 25.675l-.477 1.654h-.012l-.477-1.654h-.628l.814 2.401v1.758h.593v-1.758l.814-2.401h-.628zM0 31.008h.286v.801H.48v-.801h.284v-.164H0v.164zM2.401 30.844l-.374.966h.206l.079-.22h.385l.082.22h.211l-.383-.966h-.206zm-.031.584.131-.358.131.358h-.263zM4.775 31.454h.223v.124a.368.368 0 0 1-.229.081.242.242 0 0 1-.204-.092.409.409 0 0 1-.072-.252c0-.215.093-.322.278-.322a.206.206 0 0 1 .218.153l.191-.037c-.041-.189-.177-.284-.409-.284a.49.49 0 0 0-.338.124.466.466 0 0 0-.139.371.524.524 0 0 0 .124.362.46.46 0 0 0 .367.141.582.582 0 0 0 .409-.153v-.381h-.418v.163zM7.199 30.844h-.196v.966h.677v-.164h-.481v-.801zM9.248 30.844h-.195v.966h.195v-.966zM11.252 31.489l-.396-.645h-.189v.966h.182v-.631l.388.631h.194v-.966h-.179v.645zM13.064 31.385h.481v-.164h-.481v-.212h.518v-.164h-.713v.966h.733v-.164h-.538v-.261zM17.456 31.225h-.38v-.381h-.194v.966h.194v-.422h.38v.422h.194v-.966h-.194v.381zM19.279 31.385h.483v-.164h-.483v-.212h.519v-.164h-.713v.966h.732v-.164h-.538v-.261zM21.75 31.385c.168-.026.254-.115.254-.269.005-.041-.001-.083-.018-.12s-.043-.07-.077-.094a.542.542 0 0 0-.283-.057h-.409v.966h.194v-.404h.038a.265.265 0 0 1 .121.021.204.204 0 0 1 .069.071l.211.307h.232l-.118-.189a.67.67 0 0 0-.214-.232zm-.196-.134h-.144v-.243h.153a.504.504 0 0 1 .197.023c.014.012.025.028.033.045s.011.036.01.055c-.001.019-.006.037-.015.054s-.021.031-.037.042a.55.55 0 0 1-.197.023zM23.613 31.385h.481v-.164h-.481v-.212h.519v-.164h-.715v.966h.733v-.164h-.538v-.261z"/></svg></svg>